<?xml version="1.0" standalone="no"?>
<!DOCTYPE svg PUBLIC "-//W3C//DTD SVG 20010904//EN"
 "http://www.w3.org/TR/2001/REC-SVG-20010904/DTD/svg10.dtd">
<svg version="1.0" xmlns="http://www.w3.org/2000/svg"
 width="700.000000pt" height="700.000000pt" viewBox="0 0 700.000000 700.000000"
 preserveAspectRatio="xMidYMid meet">
<metadata>
Created by potrace 1.14, written by Peter Selinger 2001-2017
</metadata>
<g transform="translate(0.000000,700.000000) scale(0.100000,-0.100000)"
fill="#000000" stroke="none">
<path d="M3593 6993 c9 -2 25 -2 35 0 9 3 1 5 -18 5 -19 0 -27 -2 -17 -5z"/>
<path d="M3210 6949 c-631 -54 -1241 -278 -1749 -642 -469 -337 -862 -801
-1110 -1312 -208 -428 -315 -843 -341 -1331 -46 -855 223 -1679 774 -2369 102
-128 382 -408 511 -512 528 -424 1097 -665 1790 -759 163 -22 625 -26 785 -6
619 77 1116 260 1600 589 677 461 1170 1143 1395 1929 96 333 129 572 129 944
0 278 -13 444 -50 630 -8 41 -15 83 -15 92 0 10 -4 20 -9 23 -4 3 -6 14 -3 25
3 12 0 20 -7 20 -7 0 -9 8 -5 19 3 11 1 22 -4 25 -6 4 -8 13 -4 21 3 8 0 15
-7 15 -7 0 -9 8 -5 20 4 12 2 20 -5 20 -7 0 -9 8 -5 20 4 12 2 20 -5 20 -7 0
-10 7 -6 15 3 8 1 15 -5 15 -6 0 -8 9 -4 21 5 16 4 19 -5 14 -9 -5 -10 -2 -5
14 4 13 2 21 -5 21 -7 0 -10 7 -6 15 3 8 1 15 -5 15 -6 0 -9 7 -5 15 3 8 1 15
-5 15 -6 0 -9 7 -5 15 3 8 1 15 -5 15 -6 0 -8 7 -5 16 4 10 2 13 -6 8 -7 -5
-9 0 -6 14 4 14 2 20 -5 15 -6 -4 -8 2 -5 15 4 14 2 20 -5 15 -6 -4 -8 0 -4
10 4 10 2 17 -4 17 -6 0 -8 7 -5 16 4 10 2 13 -6 8 -7 -5 -9 0 -6 14 4 14 2
20 -5 15 -7 -4 -8 0 -4 11 4 9 3 14 -2 11 -12 -7 -24 31 -15 46 4 7 3 9 -3 6
-13 -8 -47 68 -38 84 5 7 4 10 -2 6 -5 -3 -26 29 -47 71 -426 863 -1232 1537
-2152 1800 -417 120 -868 166 -1274 131z m1785 -2056 c192 -78 348 -256 396
-453 20 -80 20 -1909 1 -1990 -44 -178 -180 -349 -342 -429 -152 -74 -77 -71
-1490 -71 -1389 0 -1335 -2 -1467 61 -97 46 -217 167 -266 269 -74 151 -71
112 -77 935 l-5 740 -232 401 c-210 362 -233 406 -233 446 0 53 26 93 74 114
26 11 332 13 1796 11 l1765 -2 80 -32z"/>
<path d="M5835 6100 c10 -11 20 -20 23 -20 3 0 -3 9 -13 20 -10 11 -20 20 -23
20 -3 0 3 -9 13 -20z"/>
<path d="M6095 5840 c10 -11 20 -20 23 -20 3 0 -3 9 -13 20 -10 11 -20 20 -23
20 -3 0 3 -9 13 -20z"/>
</g>
</svg>
